<svg width="17" height="21" viewBox="0 0 17 21" fill="none" xmlns="http://www.w3.org/2000/svg">
<path d="M7.80607 4.14507L10.0299 1.92129C11.4361 0.678582 13.529 0.809393 14.7717 2.18291C15.9163 3.42561 15.9163 5.35507 14.7717 6.63048L12.5153 8.85427L13.202 9.54103L15.4585 7.28454C17.1263 5.6167 17.0609 2.86967 15.3604 1.20183C13.6926 -0.400609 11.0436 -0.400609 9.3758 1.20183L7.11931 3.42561C5.45147 5.12615 5.45147 7.84048 7.11931 9.54102L7.80607 8.85427C6.53066 7.54616 6.53066 5.45318 7.80607 4.14507Z" fill="#8F8F8F"/>
<path d="M7.41365 19.0575L9.67014 16.8337C11.338 15.1331 11.338 12.4188 9.67014 10.751L8.98338 11.4377C10.2915 12.7458 10.2915 14.8388 8.98338 16.1469L6.72689 18.3707C5.41878 19.6788 3.32581 19.6788 2.0177 18.3707C0.70959 17.0626 0.70959 14.9696 2.0177 13.6615L4.27419 11.4377L3.58743 10.751L1.36364 12.9748C-0.369601 14.6099 -0.467709 17.3242 1.16743 19.0575C2.80257 20.7907 5.51689 20.8888 7.25014 19.2537C7.31554 19.1556 7.38095 19.1229 7.41365 19.0575Z" fill="#8F8F8F"/>
<path d="M11.4833 7.79553L10.7896 7.10181L5.37857 12.5128L6.07229 13.2066L11.4833 7.79553Z" fill="#8F8F8F"/>
</svg>
