<svg width="16" height="18" viewBox="0 0 16 18" fill="none" xmlns="http://www.w3.org/2000/svg">
<path d="M6.43517 17.3084H14.2768C14.6861 17.3079 15.0785 17.1308 15.3679 16.816C15.6572 16.5013 15.8199 16.0746 15.8203 15.6295V7.10304C15.8198 6.65812 15.657 6.23158 15.3677 5.91701C15.0783 5.60245 14.686 5.42557 14.2768 5.42517H6.43563C6.0265 5.42557 5.63424 5.60247 5.34495 5.91704C5.05566 6.23162 4.89297 6.65816 4.89261 7.10304V15.6295C4.89285 16.0744 5.0554 16.5011 5.3446 16.8158C5.63379 17.1306 6.026 17.3077 6.43517 17.3084ZM14.2768 6.67173C14.3821 6.67173 14.483 6.71716 14.5575 6.79803C14.6319 6.8789 14.6738 6.9886 14.6739 7.10304V15.6295C14.6739 15.7441 14.6321 15.854 14.5577 15.935C14.4832 16.0161 14.3822 16.0617 14.2768 16.0618H6.43563C6.33035 16.0616 6.22946 16.0159 6.1551 15.9348C6.08074 15.8538 6.03898 15.744 6.03898 15.6295V7.10304C6.03898 6.98865 6.08077 6.87894 6.15516 6.79806C6.22954 6.71717 6.33043 6.67173 6.43563 6.67173H14.2768Z" fill="#8F8F8F"/>
<path d="M1.54354 11.9886H5.46276C5.61478 11.9886 5.76058 11.9229 5.86807 11.8061C5.97556 11.6892 6.03595 11.5306 6.03595 11.3653C6.03595 11.2 5.97556 11.0415 5.86807 10.9246C5.76058 10.8077 5.61478 10.7421 5.46276 10.7421H1.54354C1.43826 10.7419 1.33732 10.6964 1.26288 10.6154C1.18843 10.5345 1.14655 10.4247 1.14643 10.3102V1.78627C1.14655 1.67183 1.18845 1.56213 1.26291 1.48126C1.33736 1.40038 1.4383 1.35496 1.54354 1.35496H9.38474C9.48998 1.35496 9.59092 1.40038 9.66538 1.48126C9.73983 1.56213 9.78173 1.67183 9.78185 1.78627V6.04851C9.78185 6.21381 9.84224 6.37235 9.94973 6.48923C10.0572 6.60612 10.203 6.67179 10.355 6.67179C10.5071 6.67179 10.6528 6.60612 10.7603 6.48923C10.8678 6.37235 10.9282 6.21381 10.9282 6.04851V1.78627C10.9277 1.34178 10.7653 0.915612 10.4764 0.601121C10.1875 0.286631 9.7958 0.109454 9.38704 0.108398H1.54354C1.13437 0.108794 0.742064 0.285681 0.452697 0.600242C0.16333 0.914804 0.000542641 1.34135 5.72205e-05 1.78627V10.3127C0.00114822 10.7573 0.164188 11.1832 0.453477 11.4973C0.742764 11.8114 1.13473 11.9881 1.54354 11.9886Z" fill="#8F8F8F"/>
</svg>
