<svg width="32" height="32" viewBox="0 0 32 32" fill="none" xmlns="http://www.w3.org/2000/svg">
<circle cx="15.645" cy="15.645" r="15.645" fill="#40C6B8"/>
<path d="M15.354 7L14.9219 7.02654L14.4985 7.10791L14.0891 7.23529L13.6953 7.41573L13.326 7.64217L12.9862 7.91107L12.6813 8.22066L12.4165 8.56563L12.1953 8.9389L12.0158 9.33871L11.8904 9.75621L11.8102 10.1861L11.7841 10.6248V16.9634L11.8102 17.4004L11.8904 17.8285L12.0158 18.2477L12.1953 18.6475L12.4165 19.0208L12.6813 19.3658L12.9862 19.6754L13.326 19.9443L13.6953 20.1707L14.0891 20.3512L14.4985 20.4803L14.9219 20.5581L15.354 20.5864L15.7826 20.5581L16.2077 20.4803L16.6189 20.3512L17.0109 20.1707L17.382 19.9443L17.7182 19.6754L18.0231 19.3658L18.2914 19.0208L18.5127 18.6475L18.6887 18.2477L18.8176 17.8285L18.896 17.4004L18.9204 16.9634V10.6248L18.896 10.1861L18.8176 9.75621L18.6887 9.33871L18.5127 8.9389L18.2914 8.56563L18.0231 8.22066L17.7182 7.91107L17.382 7.64217L17.0109 7.41573L16.6189 7.23529L16.2077 7.10791L15.7826 7.02654L15.354 7ZM15.171 7.91461H15.5369L15.8976 7.96414L16.2495 8.06321L16.584 8.21181L16.8959 8.40464L17.1799 8.63639L17.429 8.90883L17.6398 9.21134L17.8071 9.54215L17.929 9.89066L18.004 10.2533L18.0301 10.6248V16.9634L18.004 17.3349L17.929 17.6958L17.8071 18.0461L17.6398 18.3733L17.429 18.6794L17.1799 18.9501L16.8959 19.1836L16.584 19.3764L16.2495 19.5232L15.8976 19.6241L15.5369 19.6736H15.171L14.8087 19.6241L14.4567 19.5232L14.1205 19.3764L13.8086 19.1836L13.5263 18.9501L13.2772 18.6794L13.0664 18.3733L12.8974 18.0461L12.7754 17.6958L12.704 17.3349L12.6779 16.9634V10.6248L12.704 10.2533L12.7754 9.89066L12.8974 9.54215L13.0664 9.21134L13.2772 8.90883L13.5263 8.63639L13.8086 8.40464L14.1205 8.21181L14.4567 8.06321L14.8087 7.96414L15.171 7.91461ZM10 16.9634L10.0244 17.4676L10.0923 17.9665L10.2073 18.46L10.3659 18.9377L10.568 19.3994L10.8119 19.8399L11.0959 20.2539L11.4147 20.6413L11.7684 20.9986L12.1517 21.3171L12.5646 21.6001L13.0002 21.8443L13.4549 22.0459L13.9288 22.1998L14.4149 22.3131L14.9062 22.3785V24.2095H11.7841V25.1153H18.9204V24.2095H15.8V22.3785L16.2913 22.3131L16.7774 22.1998L17.2496 22.0459L17.7078 21.8443L18.1433 21.6001L18.5563 21.3171L18.9396 20.9986L19.2915 20.6413L19.6121 20.2539L19.8943 19.8399L20.1382 19.3994L20.3386 18.9377L20.4989 18.46L20.6139 17.9665L20.6836 17.4676L20.7045 16.9634H19.8142L19.788 17.4357L19.7149 17.9045L19.5964 18.3627L19.4274 18.805L19.2166 19.2278L18.9605 19.6258L18.6678 19.992L18.3367 20.3282L17.9743 20.6271L17.5823 20.8837L17.1677 21.1012L16.7321 21.2693L16.2791 21.3931L15.8209 21.4674L15.354 21.4904L14.8871 21.4674L14.4254 21.3931L13.9758 21.2693L13.5403 21.1012L13.1221 20.8837L12.7319 20.6271L12.3677 20.3282L12.0367 19.992L11.744 19.6258L11.4914 19.2278L11.2788 18.805L11.1116 18.3627L10.9896 17.9045L10.9164 17.4357L10.8938 16.9634H10Z" fill="white"/>
</svg>
