<svg width="21" height="30" viewBox="0 0 21 30" fill="none" xmlns="http://www.w3.org/2000/svg">
<g filter="url(#filter0_d_1_29)">
<path d="M10.5021 0L9.97738 0.0317415L9.46322 0.129082L8.96598 0.281441L8.48779 0.497284L8.03923 0.768145L7.62663 1.08979L7.25635 1.46011L6.93473 1.87275L6.66602 2.31925L6.44808 2.79749L6.29574 3.29689L6.19841 3.8111L6.16667 4.33589V11.9179L6.19841 12.4406L6.29574 12.9527L6.44808 13.4542L6.66602 13.9324L6.93473 14.3789L7.25635 14.7915L7.62663 15.1619L8.03923 15.4835L8.48779 15.7544L8.96598 15.9702L9.46322 16.1247L9.97738 16.2178L10.5021 16.2517L11.0226 16.2178L11.5389 16.1247L12.0382 15.9702L12.5143 15.7544L12.965 15.4835L13.3734 15.1619L13.7437 14.7915L14.0695 14.3789L14.3382 13.9324L14.5519 13.4542L14.7085 12.9527L14.8037 12.4406L14.8333 11.9179V4.33589L14.8037 3.8111L14.7085 3.29689L14.5519 2.79749L14.3382 2.31925L14.0695 1.87275L13.7437 1.46011L13.3734 1.08979L12.965 0.768145L12.5143 0.497284L12.0382 0.281441L11.5389 0.129082L11.0226 0.0317415L10.5021 0ZM10.2799 1.09402H10.7243L11.1623 1.15328L11.5897 1.27178L11.9959 1.44953L12.3747 1.68018L12.7196 1.95739L13.0221 2.28327L13.2782 2.64513L13.4813 3.04084L13.6294 3.45771L13.7204 3.89151L13.7521 4.33589V11.9179L13.7204 12.3623L13.6294 12.7939L13.4813 13.2129L13.2782 13.6044L13.0221 13.9705L12.7196 14.2943L12.3747 14.5736L11.9959 14.8042L11.5897 14.9799L11.1623 15.1005L10.7243 15.1598H10.2799L9.83984 15.1005L9.41244 14.9799L9.00407 14.8042L8.62533 14.5736L8.28255 14.2943L7.97998 13.9705L7.72396 13.6044L7.51872 13.2129L7.37061 12.7939L7.28385 12.3623L7.25212 11.9179V4.33589L7.28385 3.89151L7.37061 3.45771L7.51872 3.04084L7.72396 2.64513L7.97998 2.28327L8.28255 1.95739L8.62533 1.68018L9.00407 1.44953L9.41244 1.27178L9.83984 1.15328L10.2799 1.09402ZM4 11.9179L4.02962 12.521L4.11214 13.1177L4.25179 13.7081L4.44434 14.2795L4.68978 14.8318L4.986 15.3587L5.33089 15.8538L5.7181 16.3173L6.14762 16.7447L6.61312 17.1256L7.11458 17.4642L7.64355 17.7562L8.1958 17.9974L8.77132 18.1815L9.36165 18.317L9.95833 18.3953V20.5854H6.16667V21.6689H14.8333V20.5854H11.0438V18.3953L11.6405 18.317L12.2308 18.1815L12.8042 17.9974L13.3607 17.7562L13.8896 17.4642L14.3911 17.1256L14.8566 16.7447L15.284 16.3173L15.6733 15.8538L16.0161 15.3587L16.3123 14.8318L16.5557 14.2795L16.7503 13.7081L16.89 13.1177L16.9746 12.521L17 11.9179H15.9188L15.887 12.4829L15.7982 13.0436L15.6543 13.5917L15.4491 14.1207L15.193 14.6265L14.882 15.1026L14.5265 15.5406L14.1245 15.9427L13.6844 16.3003L13.2083 16.6072L12.7048 16.8674L12.1758 17.0685L11.6257 17.2166L11.0692 17.3055L10.5021 17.333L9.93506 17.3055L9.37435 17.2166L8.82845 17.0685L8.29948 16.8674L7.79167 16.6072L7.31771 16.3003L6.87549 15.9427L6.47347 15.5406L6.118 15.1026L5.8112 14.6265L5.55306 14.1207L5.34993 13.5917L5.20182 13.0436L5.11296 12.4829L5.08545 11.9179H4Z" fill="white"/>
</g>
<defs>
<filter id="filter0_d_1_29" x="0" y="0" width="21" height="29.6689" filterUnits="userSpaceOnUse" color-interpolation-filters="sRGB">
<feFlood flood-opacity="0" result="BackgroundImageFix"/>
<feColorMatrix in="SourceAlpha" type="matrix" values="0 0 0 0 0 0 0 0 0 0 0 0 0 0 0 0 0 0 127 0" result="hardAlpha"/>
<feOffset dy="4"/>
<feGaussianBlur stdDeviation="2"/>
<feComposite in2="hardAlpha" operator="out"/>
<feColorMatrix type="matrix" values="0 0 0 0 0 0 0 0 0 0 0 0 0 0 0 0 0 0 0.25 0"/>
<feBlend mode="normal" in2="BackgroundImageFix" result="effect1_dropShadow_1_29"/>
<feBlend mode="normal" in="SourceGraphic" in2="effect1_dropShadow_1_29" result="shape"/>
</filter>
</defs>
</svg>
