<svg width="13" height="18" viewBox="0 0 13 18" fill="none" xmlns="http://www.w3.org/2000/svg">
<path d="M6.50212 0L5.97738 0.0262182L5.46322 0.106621L4.96598 0.232468L4.48779 0.410752L4.03923 0.634481L3.62663 0.900159L3.25635 1.20604L2.93473 1.54688L2.66602 1.91568L2.44808 2.3107L2.29574 2.7232L2.19841 3.14793L2.16667 3.58141V9.84407L2.19841 10.2758L2.29574 10.6988L2.44808 11.113L2.66602 11.5081L2.93473 11.8769L3.25635 12.2177L3.62663 12.5236L4.03923 12.7892L4.48779 13.013L4.96598 13.1913L5.46322 13.3189L5.97738 13.3958L6.50212 13.4237L7.02262 13.3958L7.5389 13.3189L8.03825 13.1913L8.51432 13.013L8.96501 12.7892L9.37337 12.5236L9.74365 12.2177L10.0695 11.8769L10.3382 11.5081L10.5519 11.113L10.7085 10.6988L10.8037 10.2758L10.8333 9.84407V3.58141L10.8037 3.14793L10.7085 2.7232L10.5519 2.3107L10.3382 1.91568L10.0695 1.54688L9.74365 1.20604L9.37337 0.900159L8.96501 0.634481L8.51432 0.410752L8.03825 0.232468L7.5389 0.106621L7.02262 0.0262182L6.50212 0ZM6.27995 0.903655H6.72428L7.16227 0.952595L7.58968 1.05048L7.99593 1.1973L8.37467 1.38782L8.71956 1.61679L9.02214 1.88596L9.27816 2.18485L9.48128 2.51171L9.62939 2.85604L9.72038 3.21435L9.75212 3.58141V9.84407L9.72038 10.2111L9.62939 10.5677L9.48128 10.9138L9.27816 11.2371L9.02214 11.5395L8.71956 11.8069L8.37467 12.0377L7.99593 12.2282L7.58968 12.3733L7.16227 12.4729L6.72428 12.5218H6.27995L5.83984 12.4729L5.41244 12.3733L5.00407 12.2282L4.62533 12.0377L4.28255 11.8069L3.97998 11.5395L3.72396 11.2371L3.51872 10.9138L3.37061 10.5677L3.28385 10.2111L3.25212 9.84407V3.58141L3.28385 3.21435L3.37061 2.85604L3.51872 2.51171L3.72396 2.18485L3.97998 1.88596L4.28255 1.61679L4.62533 1.38782L5.00407 1.1973L5.41244 1.05048L5.83984 0.952595L6.27995 0.903655ZM0 9.84407L0.0296224 10.3422L0.112142 10.8351L0.25179 11.3228L0.444336 11.7947L0.689779 12.2509L0.986003 12.6861L1.33089 13.0951L1.7181 13.4779L2.14762 13.831L2.61312 14.1456L3.11458 14.4253L3.64355 14.6665L4.1958 14.8657L4.77132 15.0178L5.36165 15.1297L5.95833 15.1943V17.0034H2.16667V17.8983H10.8333V17.0034H7.04378V15.1943L7.64046 15.1297L8.23079 15.0178L8.8042 14.8657L9.36068 14.6665L9.88965 14.4253L10.3911 14.1456L10.8566 13.831L11.284 13.4779L11.6733 13.0951L12.0161 12.6861L12.3123 12.2509L12.5557 11.7947L12.7503 11.3228L12.89 10.8351L12.9746 10.3422L13 9.84407H11.9188L11.887 10.3108L11.7982 10.7739L11.6543 11.2266L11.4491 11.6636L11.193 12.0814L10.882 12.4746L10.5265 12.8364L10.1245 13.1685L9.68441 13.4639L9.20833 13.7174L8.70475 13.9324L8.17578 14.0984L7.62565 14.2208L7.06917 14.2942L6.50212 14.3169L5.93506 14.2942L5.37435 14.2208L4.82845 14.0984L4.29948 13.9324L3.79167 13.7174L3.31771 13.4639L2.87549 13.1685L2.47347 12.8364L2.118 12.4746L1.8112 12.0814L1.55306 11.6636L1.34993 11.2266L1.20182 10.7739L1.11296 10.3108L1.08545 9.84407H0Z" fill="#969696"/>
</svg>
