<svg width="12" height="13" viewBox="0 0 12 13" fill="none" xmlns="http://www.w3.org/2000/svg">
<g clip-path="url(#clip0_1_864)">
<path fill-rule="evenodd" clip-rule="evenodd" d="M0.53341 7.04167C0.817633 7.04167 1.04348 6.7951 1.04348 6.5C1.04348 4.48907 1.50822 3.18182 2.25338 2.37456C2.99059 1.57591 4.17242 1.08333 6 1.08333C7.8276 1.08333 9.00939 1.57591 9.74661 2.37456C10.1073 2.76531 10.4023 3.27321 10.6107 3.92135C10.6877 4.16079 10.8969 4.33333 11.1401 4.33333C11.4785 4.33333 11.7321 4.00745 11.63 3.67245C10.8833 1.22415 9.00663 0 6 0C2 0 0 2.16667 0 6.5C0 6.50796 6.73763e-06 6.51592 2.0213e-05 6.52383C0.000511731 6.81341 0.230884 7.04167 0.509807 7.04167H0.53341ZM1.38932 9.07866C1.31234 8.83919 1.10309 8.66667 0.859946 8.66667C0.521474 8.66667 0.26787 8.99253 0.370039 9.32755C1.11671 11.7758 2.99336 13 6 13C10 13 12 10.8333 12 6.5C12 6.49204 12 6.48408 12 6.47617C11.9995 6.18659 11.7691 5.95833 11.4902 5.95833H11.4666C11.1824 5.95833 10.9565 6.2049 10.9565 6.5C10.9565 8.51094 10.4918 9.8182 9.74661 10.6254C9.00939 11.4241 7.8276 11.9167 6 11.9167C4.17242 11.9167 2.99059 11.4241 2.25338 10.6254C1.89269 10.2347 1.5977 9.72682 1.38932 9.07866Z" fill="white"/>
<path d="M11.4782 0.541687V3.79169H8.34778" stroke="white" stroke-linecap="round" stroke-linejoin="round"/>
<path d="M0.521729 12.4583L0.521729 9.20831H3.65216" stroke="white" stroke-linecap="round" stroke-linejoin="round"/>
</g>
<defs>
<clipPath id="clip0_1_864">
<rect width="12" height="13" fill="white"/>
</clipPath>
</defs>
</svg>
