<svg width="13" height="18" viewBox="0 0 13 18" fill="none" xmlns="http://www.w3.org/2000/svg">
<path d="M11.7 17.08H1.3C0.585 17.08 0 16.495 0 15.78V2.25996C0 1.54496 0.585 0.959961 1.3 0.959961H6.591C6.942 0.959961 7.753 1.25294 8 1.49994L12.5 5.99994C12.747 6.24694 13 7.01796 13 7.36896V15.78C13 16.495 12.415 17.08 11.7 17.08ZM1.3 1.99994C0.871 1.99994 1 1.83096 1 2.25996V15.2031C1 15.6321 1.571 15.9999 2 15.9999H10.5C10.929 15.9999 12 16.209 12 15.78V7.49994C12 7.29194 11.656 6.64294 11.5 6.49994L8.5 3.49994C7.5 2.49994 7 1.99994 7 1.99994H1.3Z" fill="#8F8F8F"/>
<path d="M8.41107 13.1799H7.33207L6.73407 10.8399C6.70807 10.7619 6.66907 10.5799 6.61707 10.3199C6.56507 10.0599 6.52607 9.87795 6.52607 9.79995C6.51307 9.90395 6.48707 10.0859 6.43507 10.3329C6.38307 10.5799 6.34407 10.7489 6.31807 10.8529L5.72007 13.1799H4.64107L3.51007 8.72095H4.43307L5.00507 11.1519C5.10907 11.6069 5.17407 11.9839 5.22607 12.3219C5.23907 12.2049 5.26507 12.0229 5.30407 11.7889C5.34307 11.5549 5.39507 11.3599 5.42107 11.2299L6.07107 8.73395H6.96807L7.61807 11.2299C7.64407 11.3469 7.68307 11.5159 7.72207 11.7369C7.76107 11.9579 7.80007 12.1659 7.82607 12.3219C7.85207 12.1659 7.87807 11.9709 7.93007 11.7239C7.98207 11.4769 8.02107 11.2949 8.04707 11.1519L8.61907 8.72095H9.54207L8.41107 13.1799Z" fill="#8F8F8F"/>
</svg>
