<svg width="32" height="32" viewBox="0 0 32 32" fill="none" xmlns="http://www.w3.org/2000/svg">
<circle cx="15.645" cy="15.645" r="15.645" fill="#118AD3"/>
<path d="M18.5309 17.9764L15.7861 15.2317L13.0414 17.9764" stroke="white" stroke-linecap="round" stroke-linejoin="round"/>
<path d="M15.786 15.2317V21.4073" stroke="white" stroke-linecap="round" stroke-linejoin="round"/>
<path d="M21.543 19.6163C22.2123 19.2514 22.741 18.6741 23.0457 17.9754C23.3504 17.2767 23.4137 16.4964 23.2257 15.7577C23.0377 15.019 22.609 14.3639 22.0073 13.8959C21.4057 13.4279 20.6653 13.1735 19.903 13.173H19.0385C18.8308 12.3697 18.4436 11.6239 17.9062 10.9917C17.3688 10.3594 16.695 9.85729 15.9356 9.52295C15.1762 9.18861 14.3508 9.03079 13.5216 9.06134C12.6924 9.09189 11.8809 9.31003 11.1481 9.69934C10.4154 10.0887 9.78039 10.639 9.29094 11.3091C8.8015 11.9791 8.47031 12.7514 8.3223 13.5679C8.17428 14.3843 8.21328 15.2237 8.43636 16.0229C8.65945 16.8222 9.06081 17.5604 9.61028 18.1822" stroke="white" stroke-linecap="round" stroke-linejoin="round"/>
<path d="M18.5309 17.9764L15.7861 15.2317L13.0414 17.9764" stroke="white" stroke-linecap="round" stroke-linejoin="round"/>
</svg>
