<svg width="32" height="32" viewBox="0 0 32 32" fill="none" xmlns="http://www.w3.org/2000/svg">
<ellipse cx="15.8801" cy="15.645" rx="15.8801" ry="15.645" fill="#FF1654"/>
<path d="M15.1553 10.8238L17.0139 8.99267C18.1892 7.9694 19.9385 8.07712 20.9772 9.2081C21.9338 10.2314 21.9338 11.8201 20.9772 12.8703L19.0912 14.7014L19.6652 15.2669L21.5512 13.4089C22.9451 12.0355 22.8905 9.77359 21.4692 8.40025C20.0752 7.08077 17.8613 7.08077 16.4673 8.40025L14.5813 10.2314C13.1873 11.6316 13.1873 13.8667 14.5813 15.2669L15.1553 14.7014C14.0893 13.6243 14.0893 11.9009 15.1553 10.8238Z" fill="white"/>
<path d="M14.8272 23.1032L16.7132 21.2721C18.1072 19.8718 18.1072 17.6368 16.7132 16.2634L16.1392 16.8289C17.2325 17.906 17.2325 19.6294 16.1392 20.7066L14.2532 22.5377C13.1599 23.6148 11.4106 23.6148 10.3173 22.5377C9.22401 21.4606 9.22401 19.7372 10.3173 18.66L12.2033 16.8289L11.6293 16.2634L9.77066 18.0945C8.32202 19.4409 8.24003 21.676 9.60666 23.1032C10.9733 24.5304 13.2419 24.6111 14.6906 23.2647C14.7452 23.184 14.7999 23.157 14.8272 23.1032Z" fill="white"/>
<path d="M18.2286 13.8298L17.6488 13.2585L13.1263 17.7141L13.7061 18.2853L18.2286 13.8298Z" fill="white"/>
</svg>
